#!OML:ASF E:\basketball\basketball\Project 1\Capture day 1\Session 1\Subject.ASF
:FULLY-SPECIFIED
:DEGREES
85
root -25.9005 13.3306 6.63452 202.655 52.6033 180.401
lowerback 28.0118 0.142535 -12.4151
upperback 13.3256 -0.629899 -3.71017
thorax 0.00562514 0.120399 3.11904
lowerneck -4.85709 -18.5349 -33.7373
upperneck -28.8203 -22.4094 59.8881
head 12.1699 -13.496 37.7078
rclavicle -3.18055e-015 2.14687e-014
rhumerus -25.2458 -29.1175 -81.6931
rradius 99.0792
rwrist -53.8132
rhand -29.2479 30.501
rfingers 7.12502
rthumb -2.59117 0.536982
lclavicle -3.18055e-015 2.14687e-014
lhumerus -13.6948 14.8609 82.0892
lradius 76.4593
lwrist 199.65
lhand -11.961 -29.3687
lfingers 7.12502
lthumb 14.0946 0.133343
rfemur -30.5116 -13.6344 14.2976
rtibia 96.9163
rfoot -12.1197 -5.50043
rtoes -20.0991
lfemur -39.1257 8.46366 -21.5832
ltibia 84.259
lfoot -25.6461 -12.3545
ltoes -22.3424
86
root -25.6393 13.3283 6.40732 202.454 51.8854 180.688
lowerback 28.5342 -0.218429 -12.5988
upperback 13.359 -1.18095 -3.31663
thorax -0.0916786 -0.168736 3.80343
lowerneck -5.75564 -18.4825 -33.5359
upperneck -27.5177 -22.3135 59.6097
head 12.496 -13.2572 36.9182
rclavicle 2.54444e-014 1.35174e-014
rhumerus -25.4826 -28.2962 -82.228
rradius 100.643
rwrist -55.007
rhand -28.3479 29.5672
rfingers 7.12502
rthumb -1.7219 -0.405629
lclavicle 2.54444e-014 1.35174e-014
lhumerus -9.93111 14.6043 83.3717
lradius 77.8749
lwrist 198.618
lhand -12.4368 -27.6717
lfingers 7.12502
lthumb 13.636 1.8617
rfemur -34.6218 -13.3555 14.8049
rtibia 100.089
rfoot -14.4236 -7.43869
rtoes -23.2584
lfemur -36.3145 7.98847 -20.9604
ltibia 82.7951
lfoot -25.3728 -12.072
ltoes -20.2369
87
root -25.3768 13.3177 6.17731 202.142 51.4319 181.033
lowerback 29.1648 -0.458336 -12.9601
upperback 13.3802 -1.63854 -2.87506
thorax -0.232467 -0.419587 4.6236
lowerneck -6.56119 -18.3667 -33.3751
upperneck -26.3612 -22.1401 59.2872
head 12.7411 -13.0097 36.494
rclavicle 3.18055e-015 3.81667e-014
rhumerus -25.0958 -27.2298 -83.0384
rradius 102.005
rwrist -54.5028
rhand -28.7349 28.9096
rfingers 7.12502
rthumb -2.09567 -1.05989
lclavicle 3.18055e-015 3.81667e-014
lhumerus -6.76749 14.3255 84.4776
lradius 79.4087
lwrist 197.524
lhand -12.6321 -26.2903
lfingers 7.12502
lthumb 13.4478 3.25561
rfemur -38.0648 -12.5689 15.1455
rtibia 102.118
rfoot -15.3122 -9.66553
rtoes -27.429
lfemur -33.3291 7.82182 -20.3243
ltibia 81.2109
lfoot -24.8606 -12.1148
ltoes -17.2538
88
root -25.1089 13.3095 5.93669 201.482 51.1598 181.073
lowerback 30.2321 -0.598949 -13.7292
upperback 13.1849 -2.19654 -2.17574
thorax -0.541147 -0.71981 5.51344
lowerneck -7.51949 -18.169 -33.2143
upperneck -24.9943 -21.7875 58.8017
head 12.8719 -12.5957 35.9687
rclavicle -2.06736e-014 7.4743e-014
rhumerus -24.2148 -25.9385 -83.8794
rradius 103.186
rwrist -53.5604
rhand -28.3463 27.7877
rfingers 7.12502
rthumb -1.72037 -2.18516
lclavicle -2.06736e-014 7.4743e-014
lhumerus -4.13827 14.4363 85.3818
lradius 80.9068
lwrist 196.662
lhand -12.7423 -24.5466
lfingers 7.12502
lthumb 13.3416 5.00628
rfemur -41.4776 -11.6068 14.9479
rtibia 103.808
rfoot -15.9558 -9.97909
rtoes -22.2147
lfemur -30.0464 7.72187 -19.9339
ltibia 79.3719
lfoot -24.2083 -12.2637
ltoes -14.9831
89
root -24.8387 13.2991 5.68064 200.484 50.8648 180.779
lowerback 31.2137 -1.10777 -13.9847
upperback 13.0712 -3.04715 -2.17179
thorax -0.874441 -1.10964 5.87043
lowerneck -8.64934 -18.0348 -32.6192
upperneck -23.3417 -21.6312 58.4483
head 13.2489 -12.2925 35.2793
rclavicle -2.8625e-014 -6.20208e-014
rhumerus -23.236 -24.5633 -85.2866
rradius 104.489
rwrist -51.8342
rhand -27.7879 26.3259
rfingers 7.12502
rthumb -1.18102 -3.65055
lclavicle -2.8625e-014 -6.20208e-014
lhumerus -2.10749 14.6571 85.3193
lradius 82.24
lwrist 196.126
lhand -13.0737 -21.8776
lfingers 7.12502
lthumb 13.0222 7.69596
rfemur -44.8748 -10.7431 14.3228
rtibia 104.866
rfoot -17.0348 -9.90484
rtoes -17.6495
lfemur -26.5299 7.3671 -19.8489
ltibia 77.3537
lfoot -23.5712 -12.1722
ltoes -11.3484
90
root -24.5636 13.2881 5.4119 199.537 50.7879 180.486
lowerback 31.9755 -1.27613 -14.8608
upperback 13.024 -3.60278 -1.50682
thorax -0.990334 -1.44008 7.16892
lowerneck -9.85839 -17.8992 -32.6747
upperneck -21.8585 -21.3299 57.8302
head 13.4217 -11.8208 34.3882
rclavicle -4.13472e-014 -9.54166e-015
rhumerus -21.5084 -22.6898 -85.8533
rradius 105.664
rwrist -49.7099
rhand -27.1841 24.9428
rfingers 7.12502
rthumb -0.597886 -5.03614
lclavicle -4.13472e-014 -9.54166e-015
lhumerus -0.159703 15.2826 86.1515
lradius 83.0863
lwrist 195.45
lhand -11.4413 -21.9211
lfingers 7.12502
lthumb 14.5954 7.54539
rfemur -48.3718 -9.65399 13.5469
rtibia 105.181
rfoot -17.2867 -9.84177
rtoes -12.0958
lfemur -23.0537 6.91114 -19.9235
ltibia 75.1064
lfoot -23.1541 -12.4136
ltoes -9.41306
91
root -24.292 13.271 5.12643 199.06 50.8557 180.405
lowerback 32.541 -1.63522 -14.9713
upperback 12.6234 -4.28297 -1.22578
thorax -1.48227 -1.76232 7.72494
lowerneck -10.4758 -17.5145 -32.4493
upperneck -20.2298 -20.792 57.0543
head 13.2273 -11.2686 33.5615
rclavicle 6.67916e-014 -6.99722e-014
rhumerus -20.0393 -20.8896 -86.8743
rradius 106.968
rwrist -47.5056
rhand -26.8642 23.8002
rfingers 7.12502
rthumb -0.288881 -6.17934
lclavicle 6.67916e-014 -6.99722e-014
lhumerus 0.995076 15.4776 86.0679
lradius 83.3981
lwrist 195.239
lhand -9.60354 -19.8691
lfingers 7.12502
lthumb 16.3654 9.46044
rfemur -52.2643 -8.56563 12.7333
rtibia 105.008
rfoot -18.5278 -10.7741
rtoes -15.3792
lfemur -19.9042 6.30264 -20.1012
ltibia 72.7287
lfoot -22.939 -12.3024
ltoes -15.932
92
root -24.0135 13.2449 4.83112 198.718 51.3715 180.654
lowerback 33.3046 -1.92491 -15.1065
upperback 12.1682 -4.92765 -0.925398
thorax -2.09972 -2.05645 8.32083
lowerneck -11.6763 -17.2156 -32.2459
upperneck -18.2923 -20.3244 56.1662
head 13.2505 -10.6583 32.4673
rclavicle 6.36111e-014 -5.56597e-014
rhumerus -18.3917 -18.4569 -88.2138
rradius 108.44
rwrist -44.9761
rhand -26.6625 22.5852
rfingers 7.12502
rthumb -0.0940856 -7.39455
lclavicle 6.36111e-014 -5.56597e-014
lhumerus 1.52225 15.9516 85.5641
lradius 83.5403
lwrist 195.439
lhand -8.96123 -20.6375
lfingers 7.12502
lthumb 16.9838 8.64003
rfemur -56.0359 -7.15417 11.9211
rtibia 104.377
rfoot -18.9981 -11.6632
rtoes -18.3176
lfemur -16.1988 6.12044 -20.3371
ltibia 70.1262
lfoot -22.8956 -11.1753
ltoes -17.1212
93
root -23.7306 13.2069 4.51013 199.034 52.1553 181.129
lowerback 32.9581 -2.08419 -15.2463
upperback 11.8715 -5.2331 -0.281381
thorax -2.17495 -2.26944 9.1755
lowerneck -12.5967 -16.8566 -32.4425
upperneck -16.6182 -19.6812 55.0551
head 12.9654 -9.97155 31.3358
rclavicle -6.36111e-015 2.38542e-014
rhumerus -16.4523 -15.9372 -89.0889
rradius 109.988
rwrist -42.0799
rhand -26.1305 21.3196
rfingers 7.12502
rthumb 0.41975 -8.65973
lclavicle -6.36111e-015 2.38542e-014
lhumerus 1.59992 16.2346 85.554
lradius 83.6247
lwrist 195.434
lhand -7.42125 -19.1445
lfingers 7.12502
lthumb 18.4656 9.99907
rfemur -60.2068 -5.79254 11.1241
rtibia 103.199
rfoot -18.793 -12.1089
rtoes -21.7738
lfemur -12.877 5.89654 -20.8116
ltibia 67.3341
lfoot -22.5011 -9.78809
ltoes -19.0077
94
root -23.4364 13.1621 4.1629 199.777 53.2897 181.734
lowerback 32.2086 -2.3029 -14.8897
upperback 11.4541 -5.46311 0.0475736
thorax -2.32893 -2.41281 9.41565
lowerneck -13.858 -16.6761 -32.2353
upperneck -14.8686 -19.2878 53.95
head 12.8428 -9.36011 29.815
rclavicle 0 -5.24792e-014
rhumerus -14.5833 -13.4559 -90.3053
rradius 111.588
rwrist -39.1071
rhand -25.5079 20.2606
rfingers 7.12502
rthumb 1.02106 -9.7167
lclavicle 0 -5.24792e-014
lhumerus 0.832146 16.0382 85.0822
lradius 83.9514
lwrist 195.328
lhand -7.39012 -21.7492
lfingers 7.12502
lthumb 18.4956 7.39149
rfemur -64.3727 -4.47442 10.2344
rtibia 101.329
rfoot -18.3854 -11.625
rtoes -27.2256
lfemur -9.7881 5.68897 -21.5439
ltibia 64.3015
lfoot -21.6381 -8.79756
ltoes -18.715
95
root -23.1266 13.1124 3.79469 201.099 54.7718 182.606
lowerback 30.7463 -2.48282 -14.5078
upperback 11.1115 -5.54294 0.433116
thorax -2.14727 -2.52451 9.63284
lowerneck -15.4371 -16.5128 -31.8297
upperneck -13.1075 -18.8094 52.6442
head 12.6131 -8.64523 28.059
rclavicle -1.11319e-014 3.81667e-014
rhumerus -12.3748 -10.2454 -91.4141
rradius 112.858
rwrist -35.9451
rhand -25.567 19.7295
rfingers 7.12502
rthumb 0.96395 -10.2481
lclavicle -1.11319e-014 3.81667e-014
lhumerus -0.540136 16.0184 84.7124
lradius 83.9508
lwrist 195.057
lhand -7.01161 -21.8325
lfingers 7.12502
lthumb 18.8597 7.27319
rfemur -68.5072 -3.21946 9.40755
rtibia 98.9158
rfoot -18.627 -9.30535
rtoes -29.3962
lfemur -6.99009 5.59016 -22.4737
ltibia 61.2388
lfoot -20.3055 -7.89525
ltoes -18.1835
